<svg width="72" height="38" viewBox="0 0 72 38" fill="none" xmlns="http://www.w3.org/2000/svg">
<path d="M39.57 8.7C40 7.58 41.42 7.58 42.57 7.58H42.78V6C42.78 6 38.34 6.1 36.98 6.1C35.62 6.1 31.42 6 31.42 6V7.58H31.63C32.77 7.58 34.19 7.58 34.63 8.7C34.9395 10.2971 35.0636 11.9245 35 13.55V23.46C35.0669 25.0851 34.9461 26.7126 34.64 28.31C34.21 29.44 32.79 29.44 31.64 29.44H31.43V31C31.43 31 35 30.84 37 30.84C39.26 30.84 42.79 30.99 42.79 30.99V29.44H42.58C41.44 29.44 40.02 29.44 39.58 28.31C39.2823 26.7115 39.1649 25.0847 39.23 23.46V13.55C39.1616 11.9257 39.2757 10.2989 39.57 8.7Z" fill="#F76902"/>
<path d="M46.14 6.05005V12.52H47.68V12.32C47.82 8.11005 49.43 7.93005 53.07 7.93005H53.44C54.34 7.93005 55.19 7.93005 55.53 8.25005C55.5876 8.31314 55.6316 8.38745 55.6591 8.46833C55.6866 8.54921 55.6972 8.63491 55.69 8.72005V25.72C55.69 28.25 55.34 29.29 51.78 29.44H51.58V31C51.58 31 55.73 30.85 58.13 30.85C59.96 30.85 64.05 31 64.05 31V29.47H63.84C60.29 29.32 59.93 28.28 59.93 25.75V8.75005C59.9275 8.67206 59.9414 8.59441 59.9706 8.52209C59.9999 8.44976 60.044 8.38435 60.1 8.33005C60.51 7.92005 61.64 7.94005 62.54 7.95005H63.05C66.6 7.95005 67.74 8.95005 67.95 12.35V12.54H69.5V6.05005C69.5 6.05005 60.5 6.11005 57.82 6.11005C55.14 6.11005 46.14 6.05005 46.14 6.05005Z" fill="#F76902"/>
<path d="M28 29.44C27.3131 29.4241 26.6393 29.2487 26.0319 28.9277C25.4244 28.6066 24.9 28.1486 24.5 27.59L17.1 19.13C20.98 18.62 23.37 16.06 23.37 12.35C23.4492 11.3138 23.2306 10.2766 22.7398 9.36055C22.249 8.44454 21.5066 7.68795 20.6 7.17995C18.7537 6.29528 16.7144 5.88948 14.67 5.99995C13.89 5.99995 12.02 6.07995 9.96 6.07995C7.9 6.07995 3.38 5.99995 3.38 5.99995V7.56995H3.69C4.87 7.56995 6.19 7.56995 6.54 8.68995C6.80324 10.205 6.91047 11.743 6.86 13.28V23.46C6.88242 24.7948 6.83569 26.1299 6.72 27.46C6.68191 27.7508 6.62174 28.0383 6.54 28.32C6.18 29.44 4.75 29.44 3.59 29.44H3.38V31C3.38 31 6.84 30.84 9.15 30.84C11.15 30.84 14.59 30.99 14.59 31V29.44H14.28C13.12 29.44 11.81 29.44 11.43 28.32C11.3435 28.0395 11.2832 27.7516 11.25 27.46C11.135 26.2201 11.0849 24.9751 11.1 23.73V19.57C12.48 19.57 12.6 19.73 13.31 20.57C13.44 20.73 13.59 20.91 13.77 21.11L19.92 28.74L21.73 31C21.73 31 23.73 30.91 24.68 30.91C26.08 30.91 28.15 31 28.15 31V29.47L28 29.44ZM11.1 17.87V8.80995C11.1 8.44995 11.1 7.94995 11.39 7.80995C12.1625 7.76031 12.9375 7.76031 13.71 7.80995C16.87 7.80995 18.71 9.65995 18.71 12.88C18.71 15.23 18.08 16.58 16.71 17.26C15.34 17.94 11.1 17.87 11.1 17.87Z" fill="#F76902"/>
</svg>
