<svg width="278" height="50" viewBox="0 0 278 50" fill="none" xmlns="http://www.w3.org/2000/svg">
<path d="M101.896 41.3335H102.405V8.04017H101.896V41.3335Z" fill="white"/>
<mask id="mask0_648_17" style="mask-type:luminance" maskUnits="userSpaceOnUse" x="0" y="0" width="278" height="50">
<path d="M0 9.00813e-05H278V49.3748H0V9.00813e-05Z" fill="white"/>
</mask>
<g mask="url(#mask0_648_17)">
<path d="M52.7624 11.6001C53.3357 10.1001 55.2291 10.1001 56.7491 10.1001H57.0317V8.03205C57.0317 8.03205 51.1064 8.16272 49.2931 8.16272C47.4277 8.16272 41.8904 8.03205 41.8904 8.03205V10.1001H42.1731C43.6931 10.1001 45.5864 10.1001 46.1571 11.5974C46.6331 12.8827 46.6331 16.5174 46.6331 18.0707V31.2787C46.6331 32.832 46.6331 36.4654 46.1584 37.7494C45.5864 39.248 43.6931 39.248 42.1731 39.248H41.8904V41.3174C41.8904 41.312 46.6797 41.1134 49.3024 41.1134C52.3211 41.1134 57.0317 41.3174 57.0317 41.3174V39.248H56.7491C55.2291 39.248 53.3357 39.248 52.7637 37.752C52.2877 36.4654 52.2877 32.832 52.2877 31.2787V18.0707C52.2877 16.5174 52.2877 12.8827 52.7624 11.6001Z" fill="#F36B25"/>
<path d="M61.5253 8.06484V16.6995H63.5787L63.588 16.4262C63.7747 10.8088 65.924 10.5715 70.7667 10.5715C70.9333 10.5715 71.1 10.5715 71.264 10.5702C72.468 10.5622 73.604 10.5555 74.0507 10.9995C74.2 11.1475 74.2733 11.3528 74.2733 11.6248V34.3195C74.2733 37.6888 73.8013 39.0795 69.0587 39.2755L68.788 39.2862V41.3435C68.788 41.3435 74.3173 41.1408 77.516 41.1408C79.9573 41.1408 85.4107 41.3435 85.4107 41.3435V39.2862L85.1387 39.2755C80.396 39.0795 79.9253 37.6888 79.9253 34.3195V11.6248C79.9253 11.3915 79.996 11.2062 80.1427 11.0622C80.6893 10.5248 82.196 10.5475 83.4067 10.5648C83.636 10.5688 83.8613 10.5715 84.0747 10.5715C88.8093 10.5715 90.336 11.9408 90.612 16.4342L90.628 16.6995H92.6667V8.06484C92.6667 8.06484 80.7173 8.14351 77.096 8.14351C73.4747 8.14351 61.5253 8.06484 61.5253 8.06484Z" fill="#F36B25"/>
<path d="M14.806 23.8306C14.806 23.8306 14.8047 11.8119 14.8033 11.7413C14.7953 11.2613 14.782 10.6053 15.182 10.4199C15.4593 10.2973 18.134 10.3946 18.2793 10.3946C22.4953 10.3946 24.9153 12.8613 24.9153 17.1613C24.9153 20.2959 24.082 22.0946 22.214 22.9959C20.4727 23.8373 14.806 23.8306 14.806 23.8306ZM37.2967 39.2493C34.9087 38.8746 34.1913 38.6039 32.6233 36.7906L22.7953 25.5079C27.9713 24.8333 31.162 21.4106 31.162 16.4693C31.162 13.2519 29.918 10.9319 27.4713 9.57194C25.6087 8.53727 23.022 8.0346 19.5567 8.0346C18.5207 8.05994 16.026 8.14527 13.278 8.14527C10.4287 8.14527 4.50867 8.03061 4.50867 8.03061V10.0986H4.91933C6.48867 10.0893 8.254 10.0959 8.72333 11.5853C9.15267 12.8759 9.15267 16.5119 9.15267 17.7053V31.2773C9.15267 32.7759 9.15267 35.0506 8.954 36.6066C8.89533 37.0666 8.81933 37.4679 8.722 37.7613C8.242 39.2479 6.32867 39.2479 4.79 39.2479H4.50867V41.3146C4.50867 41.3146 9.11667 41.1119 12.1967 41.1119C14.8447 41.1119 19.45 41.3093 19.45 41.3146V39.2479H19.0407C17.498 39.2533 15.7473 39.2493 15.2367 37.7586C15.138 37.4653 15.0633 37.0639 15.0047 36.6066C14.806 35.0639 14.806 32.8493 14.806 31.6399V26.0906C16.6447 26.1079 16.8047 26.3013 17.75 27.4426C17.926 27.6533 18.126 27.8946 18.3567 28.1599L26.5593 38.3399L28.9713 41.3146C28.9713 41.3146 31.6153 41.2026 32.9007 41.2026C34.7687 41.2026 37.5353 41.3186 37.5353 41.3186V39.2879L37.2967 39.2493Z" fill="#F36B25"/>
<path d="M114.53 14.2485H117.45C118.929 14.2485 119.709 13.5672 119.709 12.3405C119.709 11.0752 118.89 10.4525 117.489 10.4525H114.53V14.2485ZM116.827 16.5445H114.53V21.9165H111.611V7.99917H117.723C119.338 7.99917 120.545 8.46717 121.363 9.30317C122.141 10.1018 122.609 11.0752 122.609 12.3205C122.609 14.2685 121.595 15.6298 119.845 16.2138L123.329 21.9165H120.058L116.827 16.5445Z" fill="white"/>
<path d="M131.017 16.9348C131.017 14.9868 130.102 13.6641 128.486 13.6641C126.852 13.6641 125.956 14.9868 125.956 16.9348C125.956 18.8815 126.852 20.1855 128.486 20.1855C130.102 20.1855 131.017 18.8815 131.017 16.9348ZM123.27 16.9348C123.27 13.9575 125.392 11.6601 128.486 11.6601C131.581 11.6601 133.704 13.9575 133.704 16.9348C133.704 19.9108 131.581 22.2095 128.486 22.2095C125.392 22.2095 123.27 19.9108 123.27 16.9348Z" fill="white"/>
<path d="M134.443 16.9348C134.443 13.9575 136.389 11.6601 139.425 11.6601C142.015 11.6601 143.609 13.1588 143.961 15.3175H141.372C141.196 14.4428 140.516 13.7815 139.541 13.7815C137.947 13.7815 137.128 15.0081 137.128 16.9348C137.128 18.8241 137.888 20.0868 139.504 20.0868C140.573 20.0868 141.333 19.5228 141.508 18.3948H144.057C143.884 20.5161 142.228 22.2095 139.561 22.2095C136.409 22.2095 134.443 19.9108 134.443 16.9348Z" fill="white"/>
<path d="M147.853 13.2369H147.912C148.631 12.1849 149.449 11.6582 150.812 11.6582C152.876 11.6582 154.257 13.2155 154.257 15.3955V21.9182H151.609V15.7862C151.609 14.7142 150.988 13.9569 149.877 13.9569C148.709 13.9569 147.853 14.8902 147.853 16.2542V21.9182H145.205V7.99955H147.853V13.2369Z" fill="white"/>
<path d="M158.052 15.8437H162.491C162.412 14.5797 161.576 13.7037 160.368 13.7037C158.967 13.7037 158.285 14.5397 158.052 15.8437ZM155.405 16.9157C155.405 13.957 157.409 11.6583 160.329 11.6583C163.541 11.6583 165.253 14.1117 165.253 17.6743H158.013C158.208 19.2117 159.064 20.165 160.563 20.165C161.595 20.165 162.197 19.6997 162.491 18.9383H165.099C164.728 20.7103 163.152 22.209 160.583 22.209C157.273 22.209 155.405 19.8917 155.405 16.9157Z" fill="white"/>
<path d="M165.857 18.6862H168.309C168.485 19.8355 169.302 20.3409 170.49 20.3409C171.658 20.3409 172.319 19.8929 172.319 19.1929C172.319 18.2395 171.054 18.1409 169.691 17.8689C167.901 17.5182 166.149 17.0315 166.149 14.8515C166.149 12.6915 167.939 11.6595 170.218 11.6595C172.845 11.6595 174.305 12.9635 174.499 14.9675H172.106C171.989 13.8982 171.307 13.5089 170.178 13.5089C169.147 13.5089 168.466 13.8982 168.466 14.6182C168.466 15.4742 169.789 15.5515 171.21 15.8449C172.885 16.1942 174.734 16.6622 174.734 18.9969C174.734 21.0022 173.021 22.2102 170.529 22.2102C167.629 22.2102 166.013 20.8089 165.857 18.6862Z" fill="white"/>
<path d="M175.142 11.9308H176.525V8.81617H179.113V11.9308H180.826V13.6828H179.113V18.9775C179.113 19.7188 179.522 19.9695 180.106 19.9695C180.437 19.9695 180.885 19.9522 180.885 19.9522V21.8988C180.885 21.8988 180.281 21.9375 179.23 21.9375C177.945 21.9375 176.525 21.4308 176.525 19.5415V13.6828H175.142V11.9308Z" fill="white"/>
<path d="M184.251 15.8437H188.69C188.611 14.5797 187.775 13.7037 186.567 13.7037C185.166 13.7037 184.485 14.5397 184.251 15.8437ZM181.605 16.9157C181.605 13.957 183.609 11.6583 186.529 11.6583C189.741 11.6583 191.453 14.1117 191.453 17.6743H184.213C184.407 19.2117 185.263 20.165 186.762 20.165C187.794 20.165 188.397 19.6997 188.69 18.9383H191.298C190.927 20.7103 189.351 22.209 186.782 22.209C183.473 22.209 181.605 19.8917 181.605 16.9157Z" fill="white"/>
<path d="M195.229 13.5273H195.287C195.891 12.398 196.571 11.8153 197.739 11.8153C198.031 11.8153 198.206 11.8326 198.363 11.8913V14.21H198.305C196.571 14.034 195.326 14.9473 195.326 17.0526V21.918H192.678V11.9326H195.229V13.5273Z" fill="white"/>
<path d="M203.013 7.9999H205.836V21.9172H203.013V7.9999Z" fill="white"/>
<path d="M210.372 13.2941H210.43C211.112 12.2234 212.026 11.6594 213.389 11.6594C215.453 11.6594 216.834 13.2167 216.834 15.3967V21.9167H214.186V15.7861C214.186 14.7154 213.565 13.9567 212.454 13.9567C211.286 13.9567 210.43 14.8901 210.43 16.2527V21.9167H207.782V11.9314H210.372V13.2941Z" fill="white"/>
<path d="M217.846 18.6862H220.298C220.474 19.8355 221.291 20.3409 222.479 20.3409C223.647 20.3409 224.308 19.8929 224.308 19.1929C224.308 18.2395 223.043 18.1409 221.68 17.8689C219.89 17.5182 218.138 17.0315 218.138 14.8515C218.138 12.6915 219.928 11.6595 222.206 11.6595C224.834 11.6595 226.294 12.9635 226.488 14.9675H224.095C223.978 13.8982 223.296 13.5089 222.167 13.5089C221.136 13.5089 220.455 13.8982 220.455 14.6182C220.455 15.4742 221.778 15.5515 223.199 15.8449C224.874 16.1942 226.722 16.6622 226.722 18.9969C226.722 21.0022 225.01 22.2102 222.518 22.2102C219.618 22.2102 218.002 20.8089 217.846 18.6862Z" fill="white"/>
<path d="M227.13 11.9308H228.513V8.81617H231.102V11.9308H232.814V13.6828H231.102V18.9775C231.102 19.7188 231.51 19.9695 232.094 19.9695C232.425 19.9695 232.873 19.9522 232.873 19.9522V21.8988C232.873 21.8988 232.269 21.9375 231.218 21.9375C229.933 21.9375 228.513 21.4308 228.513 19.5415V13.6828H227.13V11.9308Z" fill="white"/>
<path d="M234.176 11.9319H236.823V21.9172H234.176V11.9319ZM234.176 7.9999H236.823V10.3746H234.176V7.9999Z" fill="white"/>
<path d="M237.952 11.9308H239.335V8.81617H241.924V11.9308H243.636V13.6828H241.924V18.9775C241.924 19.7188 242.332 19.9695 242.916 19.9695C243.248 19.9695 243.695 19.9522 243.695 19.9522V21.8988C243.695 21.8988 243.091 21.9375 242.04 21.9375C240.756 21.9375 239.335 21.4308 239.335 19.5415V13.6828H237.952V11.9308Z" fill="white"/>
<path d="M251.305 21.9179V20.7513H251.247C250.566 21.6659 249.786 22.1899 248.386 22.1899C246.166 22.1899 244.921 20.7699 244.921 18.5899V11.9326H247.55V18.1419C247.55 19.3099 248.074 19.9499 249.203 19.9499C250.449 19.9499 251.209 19.0166 251.209 17.6939V11.9326H253.854V21.9179H251.305Z" fill="white"/>
<path d="M254.983 11.9308H256.364V8.81617H258.954V11.9308H260.667V13.6828H258.954V18.9775C258.954 19.7188 259.363 19.9695 259.947 19.9695C260.278 19.9695 260.724 19.9522 260.724 19.9522V21.8988C260.724 21.8988 260.122 21.9375 259.07 21.9375C257.786 21.9375 256.364 21.4308 256.364 19.5415V13.6828H254.983V11.9308Z" fill="white"/>
<path d="M264.092 15.8437H268.531C268.454 14.5797 267.618 13.7037 266.408 13.7037C265.008 13.7037 264.327 14.5397 264.092 15.8437ZM261.446 16.9157C261.446 13.957 263.451 11.6583 266.371 11.6583C269.582 11.6583 271.295 14.1117 271.295 17.6743H264.054C264.248 19.2117 265.106 20.165 266.604 20.165C267.635 20.165 268.238 19.6997 268.531 18.9383H271.139C270.77 20.7103 269.192 22.209 266.623 22.209C263.314 22.209 261.446 19.8917 261.446 16.9157Z" fill="white"/>
<path d="M118.657 36.3982C118.657 34.4515 117.742 33.1289 116.126 33.1289C114.49 33.1289 113.596 34.4515 113.596 36.3982C113.596 38.3462 114.49 39.6489 116.126 39.6489C117.742 39.6489 118.657 38.3462 118.657 36.3982ZM110.909 36.3982C110.909 33.4222 113.032 31.1235 116.126 31.1235C119.221 31.1235 121.344 33.4222 121.344 36.3982C121.344 39.3755 119.221 41.6729 116.126 41.6729C113.032 41.6729 110.909 39.3755 110.909 36.3982Z" fill="white"/>
<path d="M121.79 31.3971H123.153V30.4998C123.153 28.0678 125.041 27.2104 127.59 27.4824V29.5278C126.345 29.4691 125.8 29.6251 125.8 30.6558V31.3971H127.59V33.2251H125.8V41.3811H123.153V33.2251H121.79V31.3971Z" fill="white"/>
<path d="M131.561 27.4647H142.754V29.8381H138.567V41.3821H135.746V29.8381H131.561V27.4647Z" fill="white"/>
<path d="M143.882 35.3097H148.321C148.242 34.0444 147.406 33.1684 146.198 33.1684C144.797 33.1684 144.115 34.0044 143.882 35.3097ZM141.235 36.3804C141.235 33.4217 143.239 31.123 146.159 31.123C149.371 31.123 151.085 33.575 151.085 37.1377H143.843C144.038 38.675 144.894 39.6297 146.393 39.6297C147.425 39.6297 148.029 39.163 148.321 38.403H150.929C150.559 40.1737 148.982 41.6724 146.413 41.6724C143.103 41.6724 141.235 39.3564 141.235 36.3804Z" fill="white"/>
<path d="M151.824 36.3982C151.824 33.4222 153.77 31.1235 156.806 31.1235C159.396 31.1235 160.992 32.6209 161.342 34.7822H158.753C158.578 33.9075 157.897 33.2462 156.924 33.2462C155.328 33.2462 154.51 34.4715 154.51 36.3982C154.51 38.2862 155.269 39.5515 156.885 39.5515C157.956 39.5515 158.714 38.9875 158.889 37.8595H161.44C161.265 39.9809 159.61 41.6729 156.942 41.6729C153.79 41.6729 151.824 39.3755 151.824 36.3982Z" fill="white"/>
<path d="M165.234 32.7005H165.293C166.013 31.6485 166.83 31.1232 168.193 31.1232C170.257 31.1232 171.638 32.6805 171.638 34.8618V41.3818H168.992V35.2512C168.992 34.1792 168.369 33.4218 167.258 33.4218C166.092 33.4218 165.234 34.3552 165.234 35.7178V41.3818H162.588V27.4645H165.234V32.7005Z" fill="white"/>
<path d="M175.861 32.7592H175.92C176.601 31.6885 177.516 31.1232 178.879 31.1232C180.943 31.1232 182.324 32.6805 182.324 34.8618V41.3818H179.677V35.2512C179.677 34.1792 179.055 33.4218 177.944 33.4218C176.777 33.4218 175.92 34.3552 175.92 35.7178V41.3818H173.273V31.3978H175.861V32.7592Z" fill="white"/>
<path d="M191.219 36.3982C191.219 34.4515 190.305 33.1289 188.689 33.1289C187.053 33.1289 186.158 34.4515 186.158 36.3982C186.158 38.3462 187.053 39.6489 188.689 39.6489C190.305 39.6489 191.219 38.3462 191.219 36.3982ZM183.471 36.3982C183.471 33.4222 185.594 31.1235 188.689 31.1235C191.783 31.1235 193.906 33.4222 193.906 36.3982C193.906 39.3755 191.783 41.6729 188.689 41.6729C185.594 41.6729 183.471 39.3755 183.471 36.3982Z" fill="white"/>
<path d="M195.169 27.464H197.817V41.3813H195.169V27.464Z" fill="white"/>
<path d="M206.829 36.3982C206.829 34.4515 205.915 33.1289 204.299 33.1289C202.663 33.1289 201.768 34.4515 201.768 36.3982C201.768 38.3462 202.663 39.6489 204.299 39.6489C205.915 39.6489 206.829 38.3462 206.829 36.3982ZM199.081 36.3982C199.081 33.4222 201.204 31.1235 204.299 31.1235C207.393 31.1235 209.516 33.4222 209.516 36.3982C209.516 39.3755 207.393 41.6729 204.299 41.6729C201.204 41.6729 199.081 39.3755 199.081 36.3982Z" fill="white"/>
<path d="M217.457 35.9517C217.457 34.4904 216.678 33.2464 215.082 33.2464C213.738 33.2464 212.844 34.2971 212.844 35.9704C212.844 37.6637 213.738 38.6557 215.101 38.6557C216.776 38.6557 217.457 37.4304 217.457 35.9517ZM210.469 41.6744H213.096C213.31 42.2971 213.874 42.7851 215.101 42.7851C216.6 42.7851 217.32 42.0637 217.32 40.7011V39.6104H217.262C216.678 40.2717 215.92 40.7784 214.653 40.7784C212.434 40.7784 210.254 39.0277 210.254 36.0091C210.254 33.0317 212.045 31.1237 214.576 31.1237C215.821 31.1237 216.736 31.6091 217.34 32.4464H217.378V31.3971H219.929V40.6224C219.929 42.0251 219.481 42.9797 218.741 43.6584C217.904 44.4371 216.62 44.7891 215.14 44.7891C212.416 44.7891 210.741 43.6211 210.469 41.6744Z" fill="white"/>
<path d="M221.855 42.5689H222.79C223.841 42.5689 224.269 42.0236 224.269 41.2076C224.269 40.6609 224.074 40.0183 223.51 38.5009L220.823 31.3969H223.607L225.086 35.8929C225.398 36.8076 225.729 38.0729 225.729 38.0729H225.767C225.767 38.0729 226.041 36.8076 226.351 35.8929L227.753 31.3969H230.419L226.935 41.6343C226.177 43.8543 225.437 44.6516 223.413 44.6516H221.855V42.5689Z" fill="white"/>
</g>
</svg>
